<svg xmlns="http://www.w3.org/2000/svg" xmlns:xlink="http://www.w3.org/1999/xlink" width="500" zoomAndPan="magnify" viewBox="0 0 375 374.999991" height="500" preserveAspectRatio="xMidYMid meet" version="1.0"><defs><g/><clipPath id="fe12e3184f"><path d="M 56.847656 138.007812 L 105.597656 138.007812 L 105.597656 162.757812 L 56.847656 162.757812 Z M 56.847656 138.007812 " clip-rule="nonzero"/></clipPath><clipPath id="6d9c3c8f86"><path d="M 168.660156 213.15625 L 187.5 213.15625 L 187.5 231.996094 L 168.660156 231.996094 Z M 168.660156 213.15625 " clip-rule="nonzero"/></clipPath><clipPath id="7b8020ef51"><path d="M 178.078125 213.15625 C 172.875 213.15625 168.660156 217.375 168.660156 222.578125 C 168.660156 227.78125 172.875 231.996094 178.078125 231.996094 C 183.28125 231.996094 187.5 227.78125 187.5 222.578125 C 187.5 217.375 183.28125 213.15625 178.078125 213.15625 Z M 178.078125 213.15625 " clip-rule="nonzero"/></clipPath></defs><g clip-path="url(#fe12e3184f)"><path fill="#ffde59" d="M 56.605469 162.757812 L 56.605469 162.644531 C 56.605469 159.339844 57.253906 156.132812 58.53125 153.113281 C 59.761719 150.199219 61.527344 147.582031 63.777344 145.332031 C 66.023438 143.085938 68.644531 141.320312 71.558594 140.085938 C 74.578125 138.808594 77.78125 138.164062 81.085938 138.164062 C 84.390625 138.164062 87.597656 138.808594 90.617188 140.085938 C 93.53125 141.320312 96.148438 143.085938 98.398438 145.332031 C 100.644531 147.582031 102.410156 150.199219 103.644531 153.113281 C 104.921875 156.132812 105.566406 159.339844 105.566406 162.644531 L 105.566406 162.757812 Z M 56.605469 162.757812 " fill-opacity="1" fill-rule="nonzero"/></g><g clip-path="url(#6d9c3c8f86)"><g clip-path="url(#7b8020ef51)"><path fill="#000000" d="M 168.660156 213.15625 L 187.5 213.15625 L 187.5 231.996094 L 168.660156 231.996094 Z M 168.660156 213.15625 " fill-opacity="1" fill-rule="nonzero"/></g></g><g fill="#000000" fill-opacity="1"><g transform="translate(56.578126, 206.037291)"><g><path d="M 27.484375 0 L 3.703125 0 L 3.703125 -33.140625 L 27.984375 -33.140625 C 32.296875 -33.140625 35.847656 -32.941406 38.640625 -32.546875 C 41.429688 -32.148438 43.578125 -31.53125 45.078125 -30.6875 C 46.585938 -29.851562 47.613281 -28.789062 48.15625 -27.5 C 48.695312 -26.207031 48.96875 -24.660156 48.96875 -22.859375 C 48.925781 -21.441406 48.535156 -20.265625 47.796875 -19.328125 C 47.066406 -18.398438 46.210938 -17.707031 45.234375 -17.25 C 44.253906 -16.789062 43.394531 -16.5625 42.65625 -16.5625 C 43.382812 -16.5625 44.234375 -16.421875 45.203125 -16.140625 C 46.171875 -15.859375 47.113281 -15.445312 48.03125 -14.90625 C 48.945312 -14.363281 49.707031 -13.707031 50.3125 -12.9375 C 50.925781 -12.164062 51.234375 -11.289062 51.234375 -10.3125 C 51.234375 -9.007812 51.082031 -7.816406 50.78125 -6.734375 C 50.476562 -5.660156 49.875 -4.707031 48.96875 -3.875 C 48.070312 -3.050781 46.742188 -2.347656 44.984375 -1.765625 C 43.234375 -1.191406 40.9375 -0.753906 38.09375 -0.453125 C 35.25 -0.148438 31.710938 0 27.484375 0 Z M 26.6875 -19.40625 C 28.71875 -19.40625 30.289062 -19.503906 31.40625 -19.703125 C 32.53125 -19.910156 33.304688 -20.21875 33.734375 -20.625 C 34.171875 -21.03125 34.390625 -21.550781 34.390625 -22.1875 C 34.390625 -22.832031 34.171875 -23.359375 33.734375 -23.765625 C 33.304688 -24.171875 32.53125 -24.46875 31.40625 -24.65625 C 30.289062 -24.851562 28.71875 -24.953125 26.6875 -24.953125 L 17.609375 -24.953125 L 17.609375 -19.40625 Z M 26.6875 -8.1875 C 28.769531 -8.1875 30.457031 -8.238281 31.75 -8.34375 C 33.039062 -8.445312 33.988281 -8.691406 34.59375 -9.078125 C 35.195312 -9.460938 35.5 -10.085938 35.5 -10.953125 C 35.5 -11.816406 35.195312 -12.441406 34.59375 -12.828125 C 33.988281 -13.222656 33.039062 -13.472656 31.75 -13.578125 C 30.457031 -13.679688 28.769531 -13.734375 26.6875 -13.734375 L 17.609375 -13.734375 L 17.609375 -8.1875 Z M 26.6875 -8.1875 "/></g></g></g><g fill="#000000" fill-opacity="1"><g transform="translate(109.664885, 206.037291)"><g><path d="M 42.40625 0 L 3.703125 0 L 3.703125 -33.15625 L 17.609375 -33.15625 L 17.609375 -8.203125 L 42.40625 -8.203125 Z M 42.40625 0 "/></g></g></g><g fill="#000000" fill-opacity="1"><g transform="translate(152.998656, 206.037291)"><g><path d="M 32.359375 0 L 18.4375 0 L 18.4375 -15.71875 L 0.34375 -33.15625 L 15.765625 -33.15625 L 25.390625 -23.25 L 35.015625 -33.15625 L 50.421875 -33.15625 L 32.359375 -15.71875 Z M 32.359375 0 "/></g></g></g><g fill="#000000" fill-opacity="1"><g transform="translate(203.77428, 206.037291)"><g><path d="M 52.890625 0 L 36.34375 0 L 17.609375 -22.4375 L 17.609375 0 L 3.703125 0 L 3.703125 -33.15625 L 20.25 -33.15625 L 38.984375 -10.84375 L 38.984375 -33.15625 L 52.890625 -33.15625 Z M 52.890625 0 "/></g></g></g><g fill="#000000" fill-opacity="1"><g transform="translate(260.37395, 206.037291)"><g><path d="M 58.140625 0 L 40.078125 0 L 25.84375 -11.09375 L 17.609375 -5.484375 L 17.609375 0 L 3.703125 0 L 3.703125 -33.15625 L 17.609375 -33.15625 L 17.609375 -17.8125 L 39.9375 -33.15625 L 58.140625 -33.15625 L 34.390625 -16.9375 Z M 58.140625 0 "/></g></g></g></svg>